<svg width="16" height="16" viewBox="0 0 16 16" fill="none" xmlns="http://www.w3.org/2000/svg">
<circle cx="8" cy="8" r="8" fill="#1F71FF"/>
<path fill-rule="evenodd" clip-rule="evenodd" d="M9.15852 3.24744C9.57416 3.61112 9.61627 4.24288 9.25259 4.65852L7.20378 7.00001H11C11.3924 7.00001 11.7485 7.22949 11.9106 7.5868C12.0728 7.94411 12.011 8.36322 11.7526 8.65852L8.25259 12.6585C7.88891 13.0742 7.25715 13.1163 6.84151 12.7526C6.42587 12.3889 6.38376 11.7571 6.74744 11.3415L8.79625 9.00001H5.00002C4.60764 9.00001 4.25152 8.77054 4.08938 8.41323C3.92725 8.05592 3.98906 7.6368 4.24744 7.34151L7.74744 3.34151C8.11112 2.92587 8.74288 2.88375 9.15852 3.24744Z" fill="white"/>
</svg>
