<svg width="61" height="20" viewBox="0 0 61 20" fill="none" xmlns="http://www.w3.org/2000/svg">
<path fill-rule="evenodd" clip-rule="evenodd" d="M5 3.5C5 2.67157 4.32843 2 3.5 2C2.67157 2 2 2.67157 2 3.5V9.5V16.5C2 17.3284 2.67157 18 3.5 18C4.32843 18 5 17.3284 5 16.5V11H10.5C11.3284 11 12 10.3284 12 9.5C12 8.67157 11.3284 8 10.5 8H5V3.5ZM16 3.5C16 2.67157 15.3284 2 14.5 2C13.6716 2 13 2.67157 13 3.5V3.52972V3.55939V3.58901V3.61858V3.6481V3.67757V3.70699V3.73636V3.76568V3.79495V3.82417V3.85335V3.88247V3.91155V3.94057V3.96955V3.99848V4.02737V4.05621V4.085V4.11374V4.14243V4.17108V4.19968V4.22824V4.25675V4.28521V4.31363V4.34201V4.37033V4.39862V4.42685V4.45505V4.4832V4.5113V4.53936V4.56738V4.59535V4.62328V4.65117V4.67901V4.70681V4.73457V4.76228V4.78995V4.81758V4.84517V4.87272V4.90023V4.92769V4.95511V4.98249V5.00984V5.03714V5.0644V5.09162V5.1188V5.14594V5.17304V5.20011V5.22713V5.25411V5.28106V5.30797V5.33484V5.36167V5.38846V5.41521V5.44193V5.46861V5.49526V5.52186V5.54843V5.57497V5.60146V5.62792V5.65435V5.68074V5.70709V5.73341V5.7597V5.78594V5.81216V5.83834V5.86448V5.89059V5.91667V5.94271V5.96872V5.9947V6.02064V6.04655V6.07243V6.09828V6.12409V6.14987V6.17562V6.20134V6.22702V6.25268V6.2783V6.30389V6.32946V6.35499V6.38049V6.40596V6.4314V6.45681V6.48219V6.50755V6.53287V6.55816V6.58343V6.60867V6.63388V6.65906V6.68421V6.70933V6.73443V6.7595V6.78454V6.80956V6.83455V6.85951V6.88445V6.90936V6.93425V6.9591V6.98394V7.00875V7.03353V7.05829V7.08302V7.10773V7.13241V7.15707V7.18171V7.20632V7.23091V7.25548V7.28002V7.30454V7.32904V7.35351V7.37796V7.40239V7.4268V7.45119V7.47555V7.4999V7.52422V7.54852V7.5728V7.59706V7.6213V7.64552V7.66972V7.6939V7.71806V7.7422V7.76632V7.79042V7.81451V7.83857V7.86262V7.88665V7.91066V7.93465V7.95863V7.98259V8.00653V8.03045V8.05436V8.07825V8.10213V8.12599V8.14983V8.17366V8.19747V8.22126V8.24504V8.26881V8.29256V8.3163V8.34002V8.36373V8.38742V8.4111V8.43477V8.45842V8.48206V8.50569V8.5293V8.55291V8.5765V8.60007V8.62364V8.64719V8.67073V8.69427V8.71779V8.74129V8.76479V8.78828V8.81176V8.83522V8.85868V8.88213V8.90556V8.92899V8.95241V8.97582V8.99922V9.02261V9.046V9.06937V9.09274V9.1161V9.13946V9.1628V9.18614V9.20947V9.23279V9.25611V9.27942V9.30273V9.32603V9.34932V9.37261V9.39589V9.41917V9.44244V9.46571V9.48897V9.51223V9.53548V9.55874V9.58198V9.60523V9.62846V9.6517V9.67493V9.69816V9.72139V9.74462V9.76784V9.79106V9.81428V9.8375V9.86072V9.88393V9.90715V9.93036V9.95357V9.97679V10V10.0232V10.0464V10.0696V10.0929V10.1161V10.1393V10.1625V10.1857V10.2089V10.2322V10.2554V10.2786V10.3018V10.3251V10.3483V10.3715V10.3948V10.418V10.4413V10.4645V10.4878V10.511V10.5343V10.5576V10.5808V10.6041V10.6274V10.6507V10.674V10.6973V10.7206V10.7439V10.7672V10.7905V10.8139V10.8372V10.8605V10.8839V10.9073V10.9306V10.954V10.9774V11.0008V11.0242V11.0476V11.071V11.0944V11.1179V11.1413V11.1648V11.1882V11.2117V11.2352V11.2587V11.2822V11.3057V11.3293V11.3528V11.3764V11.3999V11.4235V11.4471V11.4707V11.4943V11.5179V11.5416V11.5652V11.5889V11.6126V11.6363V11.66V11.6837V11.7074V11.7312V11.755V11.7787V11.8025V11.8263V11.8502V11.874V11.8979V11.9217V11.9456V11.9695V11.9935V12.0174V12.0414V12.0653V12.0893V12.1133V12.1374V12.1614V12.1855V12.2096V12.2337V12.2578V12.2819V12.3061V12.3303V12.3545V12.3787V12.4029V12.4272V12.4515V12.4758V12.5001V12.5244V12.5488V12.5732V12.5976V12.622V12.6465V12.671V12.6955V12.72V12.7445V12.7691V12.7937V12.8183V12.8429V12.8676V12.8923V12.917V12.9417V12.9665V12.9913V13.0161V13.0409V13.0658V13.0906V13.1156V13.1405V13.1654V13.1904V13.2155V13.2405V13.2656V13.2907V13.3158V13.3409V13.3661V13.3913V13.4166V13.4418V13.4671V13.4925V13.5178V13.5432V13.5686V13.594V13.6195V13.645V13.6705V13.6961V13.7217V13.7473V13.773V13.7987V13.8244V13.8501V13.8759V13.9017V13.9276V13.9534V13.9794V14.0053V14.0313V14.0573V14.0833V14.1094V14.1355V14.1617V14.1878V14.2141V14.2403V14.2666V14.2929V14.3193V14.3457V14.3721V14.3985V14.425V14.4516V14.4781V14.5047V14.5314V14.5581V14.5848V14.6115V14.6383V14.6652V14.692V14.7189V14.7459V14.7729V14.7999V14.827V14.8541V14.8812V14.9084V14.9356V14.9629V14.9902V15.0175V15.0449V15.0723V15.0998V15.1273V15.1548V15.1824V15.21V15.2377V15.2654V15.2932V15.321V15.3488V15.3767V15.4047V15.4326V15.4606V15.4887V15.5168V15.545V15.5731V15.6014V15.6297V15.658V15.6864V15.7148V15.7432V15.7718V15.8003V15.8289V15.8576V15.8863V15.915V15.9438V15.9726V16.0015V16.0304V16.0594V16.0885V16.1175V16.1467V16.1758V16.205V16.2343V16.2636V16.293V16.3224V16.3519V16.3814V16.411V16.4406V16.4703V16.5C13 17.3284 13.6716 18 14.5 18C15.3284 18 16 17.3284 16 16.5V16.4703V16.4406V16.411V16.3814V16.3519V16.3224V16.293V16.2636V16.2343V16.205V16.1758V16.1467V16.1175V16.0885V16.0594V16.0304V16.0015V15.9726V15.9438V15.915V15.8863V15.8576V15.8289V15.8003V15.7718V15.7432V15.7148V15.6864V15.658V15.6297V15.6014V15.5731V15.545V15.5168V15.4887V15.4606V15.4326V15.4047V15.3767V15.3488V15.321V15.2932V15.2654V15.2377V15.21V15.1824V15.1548V15.1273V15.0998V15.0723V15.0449V15.0175V14.9902V14.9629V14.9356V14.9084V14.8812V14.8541V14.827V14.7999V14.7729V14.7459V14.7189V14.692V14.6652V14.6383V14.6115V14.5848V14.5581V14.5314V14.5047V14.4781V14.4516V14.425V14.3985V14.3721V14.3457V14.3193V14.2929V14.2666V14.2403V14.2141V14.1878V14.1617V14.1355V14.1094V14.0833V14.0573V14.0313V14.0053V13.9794V13.9534V13.9276V13.9017V13.8759V13.8501V13.8244V13.7987V13.773V13.7473V13.7217V13.6961V13.6705V13.645V13.6195V13.594V13.5686V13.5432V13.5178V13.4925V13.4671V13.4418V13.4166V13.3913V13.3661V13.3409V13.3158V13.2907V13.2656V13.2405V13.2155V13.1904V13.1654V13.1405V13.1156V13.0906V13.0658V13.0409V13.0161V12.9913V12.9665V12.9417V12.917V12.8923V12.8676V12.8429V12.8183V12.7937V12.7691V12.7445V12.72V12.6955V12.671V12.6465V12.622V12.5976V12.5732V12.5488V12.5244V12.5001V12.4758V12.4515V12.4272V12.4029V12.3787V12.3545V12.3303V12.3061V12.2819V12.2578V12.2337V12.2096V12.1855V12.1614V12.1374V12.1133V12.0893V12.0653V12.0414V12.0174V11.9935V11.9695V11.9456V11.9217V11.8979V11.874V11.8502V11.8263V11.8025V11.7787V11.755V11.7312V11.7074V11.6837V11.66V11.6363V11.6126V11.5889V11.5652V11.5416V11.5179V11.4943V11.4707V11.4471V11.4235V11.3999V11.3764V11.3528V11.3293V11.3057V11.2822V11.2587V11.2352V11.2117V11.1882V11.1648V11.1413V11.1179V11.0944V11.071V11.0476V11.0242V11.0008V10.9774V10.954V10.9306V10.9073V10.8839V10.8605V10.8372V10.8139V10.7905V10.7672V10.7439V10.7206V10.6973V10.674V10.6507V10.6274V10.6041V10.5808V10.5576V10.5343V10.511V10.4878V10.4645V10.4413V10.418V10.3948V10.3715V10.3483V10.3251V10.3018V10.2786V10.2554V10.2322V10.2089V10.1857V10.1625V10.1393V10.1161V10.0929V10.0696V10.0464V10.0232V10V9.97679V9.95357V9.93036V9.90715V9.88393V9.86072V9.8375V9.81428V9.79106V9.76784V9.74462V9.72139V9.69816V9.67493V9.6517V9.62846V9.60523V9.58198V9.55874V9.53548V9.51223V9.48897V9.46571V9.44244V9.41917V9.39589V9.37261V9.34932V9.32603V9.30273V9.27942V9.25611V9.23279V9.20947V9.18614V9.1628V9.13946V9.1161V9.09274V9.06937V9.046V9.02261V8.99922V8.97582V8.95241V8.92899V8.90556V8.88213V8.85868V8.83522V8.81176V8.78828V8.76479V8.74129V8.71779V8.69427V8.67073V8.64719V8.62364V8.60007V8.5765V8.55291V8.5293V8.50569V8.48206V8.45842V8.43477V8.4111V8.38742V8.36373V8.34002V8.3163V8.29256V8.26881V8.24504V8.22126V8.19747V8.17366V8.14983V8.12599V8.10213V8.07825V8.05436V8.03045V8.00653V7.98259V7.95863V7.93465V7.91066V7.88665V7.86262V7.83857V7.81451V7.79042V7.76632V7.7422V7.71806V7.6939V7.66972V7.64552V7.6213V7.59706V7.5728V7.54852V7.52422V7.4999V7.47555V7.45119V7.4268V7.40239V7.37796V7.35351V7.32904V7.30454V7.28002V7.25548V7.23091V7.20632V7.18171V7.15707V7.13241V7.10773V7.08302V7.05829V7.03353V7.00875V6.98394V6.9591V6.93425V6.90936V6.88445V6.85951V6.83455V6.80956V6.78454V6.7595V6.73443V6.70933V6.68421V6.65906V6.63388V6.60867V6.58343V6.55816V6.53287V6.50755V6.48219V6.45681V6.4314V6.40596V6.38049V6.35499V6.32946V6.30389V6.2783V6.25268V6.22702V6.20134V6.17562V6.14987V6.12409V6.09828V6.07243V6.04655V6.02064V5.9947V5.96872V5.94271V5.91667V5.89059V5.86448V5.83834V5.81216V5.78594V5.7597V5.73341V5.70709V5.68074V5.65435V5.62792V5.60146V5.57497V5.54843V5.52186V5.49526V5.46861V5.44193V5.41521V5.38846V5.36167V5.33484V5.30797V5.28106V5.25411V5.22713V5.20011V5.17304V5.14594V5.1188V5.09162V5.0644V5.03714V5.00984V4.98249V4.95511V4.92769V4.90023V4.87272V4.84517V4.81758V4.78995V4.76228V4.73457V4.70681V4.67901V4.65117V4.62328V4.59535V4.56738V4.53936V4.5113V4.4832V4.45505V4.42685V4.39862V4.37033V4.34201V4.31363V4.28521V4.25675V4.22824V4.19968V4.17108V4.14243V4.11374V4.085V4.05621V4.02737V3.99848V3.96955V3.94057V3.91155V3.88247V3.85335V3.82417V3.79495V3.76568V3.73636V3.70699V3.67757V3.6481V3.61858V3.58901V3.55939V3.52972V3.5ZM19.9733 11.0281C19.9652 9.3581 21.3167 8 22.9866 8H24C25.1046 8 26 8.89543 26 10H22.5C21.6716 10 21 10.6716 21 11.5C21 12.3284 21.6716 13 22.5 13H26C27.6569 13 29 11.6569 29 10C29 7.23858 26.7614 5 24 5H22.9866C19.6541 5 16.9571 7.71018 16.9734 11.0427L16.9798 12.3643C16.995 15.4813 19.5261 18 22.643 18H26.5C27.3284 18 28 17.3284 28 16.5C28 15.6716 27.3284 15 26.5 15H22.643C21.1772 15 19.9869 13.8155 19.9798 12.3497L19.9733 11.0281ZM36.5 8C34.567 8 33 9.567 33 11.5V16.5C33 17.3284 32.3284 18 31.5 18C30.6716 18 30 17.3284 30 16.5V11.5C30 7.91015 32.9101 5 36.5 5H37.5C38.3284 5 39 5.67157 39 6.5C39 7.32843 38.3284 8 37.5 8H36.5ZM42.9878 3.5C42.9878 2.67157 42.3162 2 41.4878 2C40.6594 2 39.9878 2.67157 39.9878 3.5V6.5V13.5C39.9878 15.9853 42.0025 18 44.4878 18H45.5C46.3284 18 47 17.3284 47 16.5C47 15.6716 46.3284 15 45.5 15H44.4878C43.6594 15 42.9878 14.3284 42.9878 13.5V8H45.5C46.3284 8 47 7.32843 47 6.5C47 5.67157 46.3284 5 45.5 5H42.9878V3.5Z" fill="white"/>
<path fill-rule="evenodd" clip-rule="evenodd" d="M57.5607 1.43934C58.1465 2.02513 58.1465 2.97487 57.5607 3.56066L53.1214 8H58.5C59.1067 8 59.6537 8.36546 59.8859 8.92597C60.118 9.48649 59.9897 10.1317 59.5607 10.5607L51.5607 18.5607C50.9749 19.1464 50.0252 19.1464 49.4394 18.5607C48.8536 17.9749 48.8536 17.0251 49.4394 16.4393L54.8787 11H49.5C48.8934 11 48.3464 10.6345 48.1142 10.074C47.8821 9.51351 48.0104 8.86834 48.4394 8.43934L55.4394 1.43934C56.0252 0.853553 56.9749 0.853553 57.5607 1.43934Z" fill="#146BFF"/>
</svg>
